<?xml version="1.0" encoding="utf-8"?>
<!-- Generator: Adobe Illustrator 16.0.4, SVG Export Plug-In . SVG Version: 6.00 Build 0)  -->
<!DOCTYPE svg PUBLIC "-//W3C//DTD SVG 1.1//EN" "http://www.w3.org/Graphics/SVG/1.1/DTD/svg11.dtd">
<svg version="1.1" id="Layer_1" xmlns="http://www.w3.org/2000/svg" xmlns:xlink="http://www.w3.org/1999/xlink" x="0px" y="0px"
	 width="150px" height="40px" viewBox="0 0 150 40" enable-background="new 0 0 150 40" xml:space="preserve">
<g>
	<path fill="#E1634E" d="M0,20.816c0.133,3.281,1.076,6.492,2.737,9.312c1.612,2.736,3.872,5.07,6.554,6.771l9.294-16.082H0
		L0,20.816z"/>
	<path fill="#E1634E" d="M29.294,37.717L20,21.633l-9.294,16.084C13.557,39.212,16.761,40,20,40S26.443,39.212,29.294,37.717z"/>
	<path fill="#E1634E" d="M0,19.184h18.585L9.291,3.1C6.608,4.801,4.348,7.135,2.736,9.871C1.076,12.691,0.133,15.902,0,19.184z"/>
	<path fill="#E1634E" d="M36.95,0H20.613v0.004l-0.412-0.001c-0.031,0-0.062-0.001-0.092-0.001C20.072,0.001,20.036,0,20,0
		c-3.239,0-6.443,0.788-9.294,2.283l9.541,16.511C21.809,18.518,35.872,15.585,36.95,0z M29.805,1.633
		c0.677,0,1.226,0.548,1.226,1.225c0,0.676-0.549,1.225-1.226,1.225c-0.677,0-1.226-0.549-1.226-1.225
		C28.579,2.181,29.127,1.633,29.805,1.633z"/>
	<path fill="#E1634E" d="M32.389,19.184H40c-0.041-2.067-0.875-3.938-2.208-5.328C36.141,16.2,34.198,17.931,32.389,19.184z"/>
	<path fill="#E1634E" d="M40,20.816H21.415L30.709,36.9c2.683-1.701,4.943-4.035,6.555-6.771C38.924,27.309,39.867,24.098,40,20.816
		z"/>
</g>
<g>
	<path fill="#3C616E" d="M56.333,12.206c2.069,0,3.104,1.068,3.337,1.435V8.268C59.67,7.467,60.104,7,60.904,7h1.068
		c0.801,0,1.268,0.467,1.268,1.268v21.958c0,0.802-0.467,1.235-1.268,1.235h-1.034c-0.801,0-1.268-0.334-1.268-1.002v-0.567
		c-0.267,0.601-1.401,1.702-3.537,1.702c-3.037,0-4.605-1.936-4.605-4.905v-9.41C51.527,14.007,53.497,12.206,56.333,12.206z
		 M57.301,15.275c-1.402,0-2.236,0.734-2.236,2.203v8.81c0,1.435,0.834,2.169,2.236,2.169c1.301,0,2.369-0.701,2.369-2.136v-8.91
		C59.67,16.01,58.602,15.275,57.301,15.275z"/>
	<path fill="#3C616E" d="M69.548,22.817v3.537c0,1.435,0.801,2.269,2.436,2.269c1.635,0,2.437-0.801,2.437-2.168v-0.301
		c0-0.768,0.434-1.168,1.234-1.168h1.002c0.801,0,1.268,0.367,1.268,1.135v0.233c0,3.404-2.236,5.44-5.94,5.44
		c-3.737,0-5.906-2.036-5.906-5.507v-8.977c0-3.437,2.169-5.506,5.906-5.506c3.738,0,5.94,2.069,5.94,5.506v4.237
		c0,0.635-0.3,1.035-0.801,1.169c-0.167,0.066-0.367,0.1-0.567,0.1H69.548z M69.548,17.245v2.736h4.906v-2.736
		c0-1.435-0.834-2.27-2.47-2.27C70.349,14.975,69.548,15.81,69.548,17.245z"/>
	<path fill="#3C616E" d="M88.604,25.888c0-0.802,0.467-1.235,1.268-1.235h1.035c0.801,0,1.234,0.434,1.234,1.235v0.4
		c0,3.471-2.136,5.507-5.873,5.507c-3.705,0-5.84-2.036-5.84-5.507v-8.977c0-3.437,2.135-5.506,5.84-5.506
		c3.737,0,5.873,2.069,5.873,5.506v0.467c0,0.801-0.434,1.235-1.234,1.235h-1.035c-0.801,0-1.268-0.434-1.268-1.235v-0.467
		c0-1.435-0.734-2.303-2.336-2.303c-1.569,0-2.336,0.869-2.336,2.303v8.977c0,1.468,0.767,2.302,2.336,2.302
		c1.602,0,2.336-0.834,2.336-2.302V25.888z"/>
	<path fill="#3C616E" d="M105.822,17.144v13.082c0,0.802-0.434,1.235-1.234,1.235h-0.968c-0.801,0-1.268-0.434-1.268-1.168v-0.701
		c-0.268,0.734-1.169,2.068-3.604,2.068c-3.137,0-4.839-1.668-4.839-4.638v-1.001c0-2.436,1.335-3.805,3.904-4.706l4.472-1.568
		v-2.637c0-1.435-0.667-2.136-2.336-2.136c-1.635,0-2.336,0.701-2.336,2.103v0.167c0,0.734-0.468,1.134-1.268,1.134h-1.035
		c-0.801,0-1.234-0.4-1.234-1.134v-0.134c0-3.437,2.068-5.306,5.873-5.306S105.822,13.674,105.822,17.144z M102.285,26.488v-3.671
		l-2.87,0.968c-1.468,0.467-1.968,1.068-1.968,2.303v0.634c0,1.335,0.7,2.036,2.268,2.036
		C101.551,28.758,102.285,27.789,102.285,26.488z"/>
	<path fill="#3C616E" d="M115.667,31.494c-2.002,0-2.97-0.834-3.27-1.201v5.473c0,0.801-0.435,1.234-1.235,1.234h-1.068
		c-0.8,0-1.233-0.434-1.233-1.234V13.407c0-0.801,0.434-1.268,1.233-1.268h1.068c0.768,0,1.235,0.367,1.235,1.001v0.601
		c0.333-0.635,1.501-1.736,3.537-1.736c2.97,0,4.638,1.87,4.638,4.839v9.578C120.572,29.691,118.537,31.494,115.667,31.494z
		 M114.766,28.424c1.402,0,2.236-0.734,2.236-2.202v-8.877c0-1.468-0.834-2.202-2.236-2.202c-1.301,0-2.368,0.734-2.368,2.136v9.01
		C112.397,27.689,113.465,28.424,114.766,28.424z"/>
	<path fill="#3C616E" d="M128.983,31.795c-3.738,0-5.907-2.036-5.907-5.507v-8.977c0-3.437,2.169-5.506,5.907-5.506
		c3.703,0,5.905,2.069,5.905,5.506v8.977C134.889,29.759,132.687,31.795,128.983,31.795z M128.983,15.008
		c-1.603,0-2.403,0.869-2.403,2.303v8.977c0,1.468,0.801,2.302,2.403,2.302c1.567,0,2.368-0.834,2.368-2.302v-8.977
		C131.352,15.877,130.551,15.008,128.983,15.008z"/>
	<path fill="#3C616E" d="M142.198,12.206c2.068,0,3.103,1.068,3.337,1.435V8.268c0-0.801,0.434-1.268,1.234-1.268h1.067
		c0.802,0,1.269,0.467,1.269,1.268v21.958c0,0.802-0.467,1.235-1.269,1.235h-1.034c-0.801,0-1.268-0.334-1.268-1.002v-0.567
		c-0.268,0.601-1.401,1.702-3.537,1.702c-3.037,0-4.605-1.936-4.605-4.905v-9.41C137.393,14.007,139.361,12.206,142.198,12.206z
		 M143.165,15.275c-1.401,0-2.235,0.734-2.235,2.203v8.81c0,1.435,0.834,2.169,2.235,2.169c1.302,0,2.37-0.701,2.37-2.136v-8.91
		C145.535,16.01,144.467,15.275,143.165,15.275z"/>
</g>
</svg>
