<?xml version="1.0" encoding="utf-8"?>
<!-- Generator: Adobe Illustrator 16.0.4, SVG Export Plug-In . SVG Version: 6.00 Build 0)  -->
<!DOCTYPE svg PUBLIC "-//W3C//DTD SVG 1.1//EN" "http://www.w3.org/Graphics/SVG/1.1/DTD/svg11.dtd">
<svg version="1.1" id="Layer_1" xmlns="http://www.w3.org/2000/svg" xmlns:xlink="http://www.w3.org/1999/xlink" x="0px" y="0px"
	 width="140px" height="150px" viewBox="0 0 140 150" enable-background="new 0 0 140 150" xml:space="preserve">
<rect x="-650" y="-247" fill="none" width="1440" height="1024"/>
<g>
	<path fill="#3C616E" d="M15.481,193.368c-1.077,0.504-2.222,0.612-3.389,0.599c-2.079-0.021-4.078-0.534-6.078-1.025
		c-1.029-0.253-1.541-0.021-2.014,0.905v0.544c0.187,0.643,0.652,1.016,1.268,1.154c1.448,0.322,2.897,0.67,4.365,0.881
		c1.655,0.236,3.326,0.275,4.989-0.038c3.356-0.63,5.808-2.709,5.861-6.409c0.033-2.164-0.767-3.891-2.601-5.094
		c-1.3-0.853-2.747-1.337-4.244-1.704c-1.499-0.368-3.04-0.607-4.442-1.303c-1.132-0.563-1.933-1.395-2.038-2.713
		c-0.114-1.445,0.281-2.688,1.587-3.492c0.893-0.552,1.894-0.738,2.922-0.813c1.703-0.122,3.354,0.173,4.995,0.587
		c0.387,0.099,0.804,0.161,1.197,0.128c0.774-0.063,1.259-0.729,1.15-1.492c-0.09-0.631-0.513-0.993-1.089-1.12
		c-1.169-0.26-2.345-0.544-3.533-0.669c-1.741-0.185-3.487-0.139-5.199,0.324c-3.121,0.842-4.841,2.895-4.945,5.915
		c-0.076,2.182,0.751,3.93,2.548,5.184c1.209,0.844,2.568,1.365,3.987,1.73c1.308,0.336,2.631,0.626,3.931,0.987
		c0.801,0.226,1.549,0.602,2.113,1.24c0.906,1.023,0.898,2.226,0.587,3.45C17.144,192.175,16.463,192.91,15.481,193.368z"/>
	<path fill="#3C616E" d="M108.938,179.002c-0.056-1.786-0.72-3.369-2.003-4.655c-1.23-1.232-2.747-1.869-4.456-2.062
		c-1.916-0.217-3.755,0.007-5.409,1.101c-0.832,0.552-1.466,1.286-1.955,2.133c-0.484-0.537-0.904-1.096-1.415-1.553
		c-1.374-1.229-3.036-1.725-4.854-1.75c-1.918-0.027-3.707,0.399-5.238,1.613c-1.934,1.535-2.635,3.633-2.64,6.016
		c-0.009,4.957-0.001,9.913-0.001,14.869c0,0.15,0.008,0.301,0.021,0.451c0.063,0.646,0.502,1.109,1.14,1.21
		c1.029,0.162,1.729-0.454,1.729-1.538c0.003-4.836,0-9.672,0.004-14.507c0.001-0.481,0.001-0.969,0.065-1.443
		c0.213-1.564,0.917-2.81,2.385-3.54c1.068-0.532,2.209-0.616,3.348-0.442c1.526,0.234,2.713,1.003,3.388,2.459
		c0.396,0.857,0.481,1.763,0.481,2.686c0.004,4.85,0.003,9.701,0.003,14.551c0,0.195,0.005,0.392,0.023,0.587
		c0.062,0.618,0.498,1.08,1.115,1.186c1.045,0.182,1.752-0.438,1.752-1.549c0.003-4.792,0-9.582,0.004-14.372
		c0-0.511-0.002-1.028,0.063-1.533c0.202-1.565,0.895-2.817,2.358-3.556c1.065-0.539,2.202-0.622,3.346-0.462
		c1.571,0.222,2.773,1.008,3.445,2.503c0.379,0.847,0.453,1.741,0.455,2.648c0.004,4.85,0.001,9.701,0.002,14.552
		c0,0.21-0.04,0.445,0.038,0.625c0.136,0.315,0.292,0.667,0.543,0.879c0.462,0.391,1.018,0.384,1.569,0.129
		c0.571-0.266,0.743-0.738,0.743-1.326c-0.005-2.921,0.003-5.845-0.002-8.768C108.98,183.762,109.011,181.38,108.938,179.002z"/>
	<g>
		<path fill="none" d="M119.06,192.467c2.331,1.083,4.763,1.669,7.344,1.466c1.437-0.112,2.787-0.48,3.846-1.546
			c0.941-0.947,1.357-2.148,1.563-3.43c0.375-2.33,0.333-4.683,0.204-7.026c-0.062-1.103-0.221-2.219-0.507-3.285
			c-0.49-1.838-1.705-3.033-3.573-3.512c-1.619-0.414-3.252-0.413-4.874-0.062c-1.857,0.404-3.164,1.504-3.756,3.331
			c-0.254,0.779-0.443,1.603-0.494,2.418c-0.123,1.966-0.146,3.938-0.209,5.909c0.019,0,0.036,0,0.055,0.001
			c0,1.702,0.012,3.402-0.009,5.103C118.646,192.176,118.762,192.328,119.06,192.467z"/>
		<path fill="#3C616E" d="M119.276,195.215c2.726,1.265,5.562,1.685,8.532,1.164c3.934-0.689,6.711-3.676,6.971-7.647
			c0.144-2.205,0.154-4.422,0.163-6.632c0.004-0.897-0.102-1.805-0.248-2.693c-0.513-3.084-2.153-5.323-5.111-6.463
			c-2.558-0.985-5.188-0.993-7.796-0.217c-2.286,0.68-4.009,2.088-5.023,4.284c-0.729,1.574-0.95,3.26-0.957,4.969
			c-0.026,7.078-0.028,14.156-0.039,21.235c0,0.151-0.026,0.322,0.035,0.446c0.147,0.298,0.286,0.638,0.528,0.844
			c0.461,0.387,1.016,0.4,1.566,0.14c0.576-0.274,0.768-0.749,0.765-1.362c-0.009-2.59-0.004-5.182-0.004-7.771v-0.572
			C118.924,195.057,119.102,195.134,119.276,195.215z M118.649,191.834c0.021-1.7,0.009-3.4,0.009-5.103
			c-0.019-0.001-0.036-0.001-0.055-0.001c0.062-1.971,0.086-3.943,0.209-5.909c0.051-0.815,0.24-1.639,0.494-2.418
			c0.592-1.827,1.898-2.927,3.756-3.331c1.622-0.352,3.255-0.353,4.874,0.062c1.868,0.479,3.083,1.674,3.573,3.512
			c0.286,1.066,0.445,2.183,0.507,3.285c0.129,2.344,0.171,4.696-0.204,7.026c-0.206,1.281-0.622,2.482-1.563,3.43
			c-1.059,1.065-2.409,1.434-3.846,1.546c-2.581,0.203-5.013-0.383-7.344-1.466C118.762,192.328,118.646,192.176,118.649,191.834z"
			/>
	</g>
	<path fill-rule="evenodd" clip-rule="evenodd" fill="#3C616E" d="M45.016,179.028c-0.561-3.387-2.567-5.526-5.864-6.408
		c-2.907-0.777-5.754-0.461-8.525,0.66c-0.429,0.172-0.848,0.364-1.317,0.567v-0.543c0-2.937-0.003-5.874,0.002-8.812
		c0.001-0.496-0.122-0.917-0.559-1.206c-0.505-0.336-1.029-0.382-1.578-0.117c-0.575,0.275-0.763,0.749-0.762,1.363
		c0.007,10.104,0.004,20.211,0.004,30.317c0,0.137-0.036,0.296,0.02,0.403c0.163,0.304,0.311,0.658,0.566,0.869
		c0.466,0.383,1.027,0.368,1.571,0.11c0.58-0.275,0.741-0.763,0.741-1.373c-0.008-5.979-0.004-11.959-0.01-17.937
		c-0.001-0.308,0.072-0.479,0.369-0.622c2.53-1.228,5.179-1.734,7.974-1.344c1.981,0.277,3.483,1.243,4.143,3.207
		c0.267,0.79,0.43,1.63,0.516,2.46c0.104,1.016,0.103,2.044,0.106,3.067c0.012,3.736,0.006,7.471,0.002,11.206
		c-0.001,0.509,0.101,0.956,0.567,1.246c0.514,0.32,1.044,0.347,1.586,0.092c0.582-0.274,0.748-0.761,0.746-1.371
		c-0.01-4.097,0.015-8.193-0.018-12.29C45.286,181.39,45.209,180.193,45.016,179.028z"/>
	<path fill="#3C616E" d="M52.18,195.265c0.089,0.318,0.292,0.668,0.549,0.866c0.489,0.378,1.056,0.359,1.616,0.073
		c0.549-0.281,0.679-0.757,0.679-1.317c-0.002-3.435-0.035-6.87,0.015-10.304c0.023-1.696,0.112-3.4,0.328-5.083
		c0.207-1.624,0.957-3.014,2.449-3.856c1.231-0.696,2.59-0.827,3.976-0.804c1.158,0.02,2.249,0.354,3.34,0.7
		c0.75,0.238,1.567-0.141,1.826-0.835c0.25-0.669-0.069-1.353-0.818-1.681c-0.397-0.173-0.813-0.317-1.234-0.421
		c-1.942-0.471-3.908-0.55-5.865-0.159c-2.625,0.525-4.662,1.881-5.843,4.358c-0.714,1.496-0.97,3.099-1.005,4.731
		c-0.045,2.169-0.012,4.337-0.012,6.507h-0.05c0,2.033-0.001,4.067,0.001,6.101C52.132,194.519,52.081,194.914,52.18,195.265z"/>
	<path fill="#3C616E" d="M71.705,172.643c-0.539,0.348-0.592,0.86-0.592,1.417c0,6.894,0,13.789,0.001,20.682
		c0,0.149,0.008,0.301,0.023,0.451c0.063,0.644,0.475,1.073,1.108,1.182c0.85,0.145,1.78-0.31,1.77-1.496
		c-0.03-3.477-0.011-6.953-0.011-10.43c0-3.508-0.031-7.016,0.016-10.522C74.04,172.476,72.545,172.098,71.705,172.643z"/>
</g>
<path fill="#E1634E" d="M48.582,76.799L67.17,44.633H30c0.266,6.562,2.152,12.984,5.474,18.624
	C38.698,68.729,43.218,73.396,48.582,76.799z"/>
<path fill="#E1634E" d="M70.001,46.266L51.413,78.434C57.115,81.424,63.523,83,70.001,83c6.478,0,12.886-1.576,18.588-4.566
	L70.001,46.266z"/>
<path fill="#E1634E" d="M35.472,22.741c-3.32,5.642-5.206,12.064-5.472,18.626h37.17L48.582,9.199
	C43.216,12.601,38.696,17.269,35.472,22.741z"/>
<path fill="#E1634E" d="M69.983,3h0.043C70.018,3,70.008,3,70,3C69.994,3,69.989,3,69.983,3z"/>
<rect x="71.226" y="3" fill="#E1634E" width="32.674" height="0"/>
<path fill="#E1634E" d="M51.412,7.565l19.082,33.022c3.124-0.552,31.25-6.418,33.406-37.587H71.226v0.008l-0.824-0.002
	c-0.062,0-0.124-0.002-0.184-0.002C70.154,3.002,70.09,3,70.027,3h-0.043C63.511,3.002,57.108,4.578,51.412,7.565z M89.609,6.266
	c1.354,0,2.452,1.096,2.452,2.45c0,1.35-1.098,2.448-2.452,2.448c-1.354,0-2.452-1.098-2.452-2.448
	C87.157,7.362,88.256,6.266,89.609,6.266z"/>
<rect x="-650" y="-247" fill="none" width="1440" height="1024"/>
<path fill="#E1634E" d="M94.777,41.367h15.222c-0.08-4.134-1.748-7.876-4.416-10.656C102.281,35.401,98.397,38.861,94.777,41.367z"
	/>
<path fill="#E1634E" d="M104.528,63.259c3.319-5.642,5.206-12.064,5.472-18.626H72.83l18.588,32.168
	C96.784,73.398,101.304,68.731,104.528,63.259z"/>
<g>
	<path fill-rule="evenodd" clip-rule="evenodd" fill="#3C616E" d="M116.073,143.988c-0.118-0.048-0.235-0.1-0.359-0.139
		c-1.178-0.349-1.728-1.073-1.728-2.304c-0.002-5.663-0.023-11.328,0.014-16.99c0.01-1.681,0.062-3.377,0.313-5.034
		c0.432-2.834,2.147-4.803,4.663-6.08c2.332-1.187,4.845-1.32,7.393-1.103c1.712,0.149,3.337,0.612,4.795,1.55
		c2.343,1.505,3.707,3.628,4,6.413c0.059,0.559,0.115,1.112,0.176,1.668c0,1.51,0,3.021,0,4.529
		c-0.089,0.774-0.14,1.557-0.274,2.324c-0.496,2.801-1.938,4.963-4.504,6.254c-2.692,1.354-5.549,1.361-8.432,0.772
		c-0.932-0.188-1.84-0.481-2.819-0.741c0,0.186,0,0.34,0,0.497c0,1.981,0.006,3.964,0,5.942c-0.002,1.252-0.558,1.974-1.761,2.322
		c-0.11,0.031-0.215,0.078-0.322,0.118C116.842,143.988,116.458,143.988,116.073,143.988z M119.36,130.647
		c0.61,0.139,1.238,0.302,1.872,0.427c1.802,0.354,3.604,0.62,5.442,0.24c1.794-0.368,2.945-1.539,3.152-3.351
		c0.282-2.476,0.298-4.957-0.003-7.432c-0.194-1.599-1.058-2.725-2.64-3.217c-1.547-0.481-3.124-0.492-4.678-0.103
		c-1.879,0.475-2.952,1.662-3.022,3.519c-0.127,3.262-0.116,6.528-0.16,9.794C119.321,130.554,119.34,130.58,119.36,130.647z"/>
	<path fill-rule="evenodd" clip-rule="evenodd" fill="#3C616E" d="M3.99,132.09c0.012-0.005,0.033-0.013,0.035-0.023
		c0.516-1.952,2.038-2.092,3.562-1.688c1.339,0.356,2.669,0.768,4.027,1.021c1.506,0.282,3.034,0.293,4.497-0.291
		c0.728-0.291,1.164-0.816,1.221-1.636c0.055-0.786-0.381-1.243-0.995-1.579c-1.079-0.592-2.274-0.812-3.463-1.037
		c-1.875-0.357-3.723-0.798-5.389-1.784c-2.464-1.464-3.382-3.867-3.079-6.578c0.342-3.062,2.295-4.786,5.09-5.657
		c2.552-0.794,5.167-0.682,7.775-0.325c0.846,0.118,1.691,0.283,2.514,0.508c1.04,0.283,1.674,1.154,1.692,2.184
		c0.021,1.148-0.548,2.115-1.443,2.418c-0.673,0.229-1.345,0.1-2.011-0.047c-1.69-0.369-3.383-0.761-5.126-0.636
		c-0.711,0.052-1.429,0.214-2.107,0.439c-0.684,0.225-1.052,0.783-1.106,1.516c-0.055,0.733,0.261,1.325,0.902,1.595
		c0.931,0.388,1.903,0.717,2.886,0.939c1.787,0.403,3.583,0.749,5.253,1.537c1.752,0.827,3.15,2.005,3.646,3.971
		c0.853,3.38-0.319,6.517-3.672,8.196c-1.736,0.869-3.602,1.092-5.512,1.071c-2.458-0.027-4.834-0.556-7.189-1.199
		c-0.982-0.267-1.717-0.819-2.008-1.849C3.99,132.802,3.99,132.446,3.99,132.09z"/>
	<path fill-rule="evenodd" clip-rule="evenodd" fill="#3C616E" d="M95.106,114.451c0.959-0.803,2.027-1.447,3.242-1.759
		c3.541-0.905,6.85-0.525,9.622,2.084c1.537,1.447,2.112,3.335,2.112,5.416c-0.003,4.481,0.005,8.963-0.003,13.447
		c-0.005,1.686-1.431,2.735-3.219,2.398c-1.422-0.267-2.105-1.089-2.105-2.558c-0.002-4.38,0.014-8.757-0.013-13.137
		c-0.003-0.591-0.103-1.219-0.317-1.767c-0.368-0.953-1.206-1.43-2.175-1.526c-0.783-0.079-1.606-0.073-2.371,0.092
		c-1.436,0.304-2.139,1.414-2.139,3.1c0.002,4.396-0.014,8.788,0.01,13.18c0.006,1.101-0.325,1.956-1.382,2.391
		c-1.149,0.474-2.256,0.377-3.246-0.424c-0.61-0.493-0.71-1.188-0.71-1.921c0.006-4.364,0.001-8.729,0.005-13.093
		c0-0.657-0.047-1.298-0.357-1.896c-0.448-0.863-1.203-1.332-2.118-1.423c-0.799-0.079-1.638-0.074-2.417,0.088
		c-1.419,0.305-2.123,1.406-2.123,3.066c-0.002,4.396-0.021,8.787,0.011,13.183c0.013,1.5-0.623,2.104-1.474,2.464
		c-1.094,0.46-2.479,0.212-3.266-0.568c-0.452-0.448-0.596-1.006-0.596-1.612c-0.005-4.529-0.028-9.055,0-13.582
		c0.026-4.235,2.856-6.89,6.544-7.609c3.048-0.595,5.878-0.102,8.35,1.898C95.005,114.409,95.047,114.423,95.106,114.451z"/>
	<path fill-rule="evenodd" clip-rule="evenodd" fill="#3C616E" d="M30.976,113.234c0.837-0.22,1.625-0.472,2.432-0.636
		c2.813-0.579,5.589-0.49,8.251,0.686c2.865,1.267,4.441,3.526,4.834,6.604c0.134,1.052,0.181,2.12,0.188,3.183
		c0.022,3.55,0.008,7.1,0.008,10.649c-0.001,1.425-0.867,2.385-2.293,2.45c-0.518,0.024-1.07-0.037-1.56-0.199
		c-0.993-0.324-1.471-1.073-1.473-2.131c-0.002-3.623,0.01-7.245-0.008-10.868c-0.004-0.872-0.07-1.743-0.161-2.61
		c-0.189-1.824-1.238-2.757-3.023-3.176c-1.775-0.419-3.555-0.22-5.32,0.124c-0.492,0.094-0.968,0.264-1.459,0.358
		c-0.348,0.067-0.426,0.235-0.425,0.572c0.011,5.104,0.008,10.208,0.007,15.31c0,1.29-0.561,2.062-1.739,2.397
		c-1.28,0.367-2.688-0.034-3.238-0.997c-0.214-0.379-0.334-0.863-0.335-1.302c-0.018-9.348-0.016-18.697-0.013-28.047
		c0-1.203,0.631-1.996,1.811-2.287c0.817-0.201,1.619-0.151,2.366,0.252c0.764,0.413,1.154,1.065,1.151,1.952
		c-0.007,2.395-0.002,4.794-0.002,7.186C30.976,112.87,30.976,113.03,30.976,113.234z"/>
	<path fill-rule="evenodd" clip-rule="evenodd" fill="#3C616E" d="M55.962,127.739c-0.001,1.984,0.01,3.963-0.005,5.948
		c-0.01,1.303-0.805,2.154-2.168,2.368c-1.363,0.213-2.684-0.463-3.036-1.581c-0.091-0.29-0.114-0.613-0.113-0.916
		c0.008-3.848,0.006-7.696,0.049-11.542c0.02-1.738,0.257-3.447,1.085-5.021c1.257-2.387,3.302-3.734,5.863-4.331
		c2.759-0.645,5.51-0.571,8.22,0.318c1.37,0.451,2.001,1.548,1.616,2.844c-0.463,1.555-1.546,2.186-3.021,1.83
		c-1.115-0.271-2.241-0.54-3.377-0.658c-1.104-0.114-2.213,0.035-3.213,0.615c-0.875,0.511-1.35,1.299-1.584,2.252
		c-0.366,1.494-0.294,3.025-0.314,4.547C55.95,125.52,55.962,126.629,55.962,127.739z"/>
	<path fill-rule="evenodd" clip-rule="evenodd" fill="#3C616E" d="M75.995,124.222c0,3.075-0.024,6.151,0.011,9.228
		c0.018,1.521-0.708,2.117-1.566,2.444c-1.15,0.442-2.597,0.107-3.302-0.737c-0.418-0.501-0.47-1.096-0.47-1.711
		c0.002-5.547,0.001-11.094,0.001-16.638c0-0.665-0.001-1.33,0-1.998c0.005-1.186,0.575-1.947,1.708-2.285
		c0.623-0.186,1.251-0.191,1.878-0.013c1.151,0.322,1.737,1.091,1.74,2.301C75.999,117.949,75.995,121.088,75.995,124.222z"/>
</g>
</svg>
