<?xml version="1.0" encoding="utf-8"?>
<!-- Generator: Adobe Illustrator 16.0.0, SVG Export Plug-In . SVG Version: 6.00 Build 0)  -->
<!DOCTYPE svg PUBLIC "-//W3C//DTD SVG 1.1//EN" "http://www.w3.org/Graphics/SVG/1.1/DTD/svg11.dtd">
<svg version="1.1" id="Layer_1" xmlns="http://www.w3.org/2000/svg" xmlns:xlink="http://www.w3.org/1999/xlink" x="0px" y="0px"
	 width="150px" height="40px" viewBox="0 0 150 40" enable-background="new 0 0 150 40" xml:space="preserve">
<g>
	<path fill="#E1634E" d="M0,20.816c0.133,3.281,1.076,6.492,2.737,9.312c1.612,2.736,3.872,5.07,6.554,6.771l9.294-16.083H0z"/>
	<path fill="#E1634E" d="M29.294,37.717L20,21.633l-9.294,16.084C13.557,39.212,16.761,40,20,40
		C23.239,40,26.443,39.212,29.294,37.717z"/>
	<path fill="#E1634E" d="M0,19.184h18.585L9.291,3.1C6.608,4.801,4.348,7.135,2.736,9.871C1.076,12.691,0.133,15.902,0,19.184z"/>
	<path fill="#E1634E" d="M36.95,0H20.613v0.004l-0.412-0.001c-0.031,0-0.062-0.001-0.092-0.001C20.072,0.001,20.036,0,20,0
		c-3.239,0-6.443,0.788-9.294,2.283l9.541,16.511C21.809,18.518,35.872,15.585,36.95,0z M29.805,1.633
		c0.677,0,1.226,0.548,1.226,1.225c0,0.676-0.549,1.225-1.226,1.225c-0.677,0-1.226-0.549-1.226-1.225
		C28.579,2.181,29.127,1.633,29.805,1.633z"/>
	<path fill="#E1634E" d="M32.389,19.184H40c-0.041-2.067-0.875-3.938-2.208-5.328C36.141,16.2,34.198,17.931,32.389,19.184z"/>
	<path fill="#E1634E" d="M40,20.816H21.415L30.709,36.9c2.683-1.701,4.943-4.035,6.555-6.771C38.924,27.309,39.867,24.098,40,20.816
		z"/>
</g>
<g>
	<path fill-rule="evenodd" clip-rule="evenodd" fill="#575757" d="M134.731,34.887c-0.088-0.035-0.176-0.074-0.268-0.104
		c-0.879-0.26-1.289-0.801-1.289-1.719c-0.002-4.225-0.018-8.451,0.01-12.676c0.008-1.254,0.047-2.52,0.234-3.756
		c0.322-2.115,1.602-3.584,3.479-4.537c1.74-0.885,3.615-0.984,5.516-0.822c1.277,0.111,2.49,0.457,3.578,1.156
		c1.748,1.123,2.766,2.707,2.984,4.785c0.043,0.416,0.086,0.83,0.131,1.244c0,1.127,0,2.254,0,3.379
		c-0.066,0.578-0.104,1.162-0.205,1.734c-0.369,2.09-1.445,3.703-3.359,4.666c-2.01,1.01-4.141,1.016-6.291,0.576
		c-0.695-0.141-1.373-0.359-2.104-0.553c0,0.139,0,0.254,0,0.371c0,1.479,0.004,2.957,0,4.434c-0.002,0.934-0.416,1.473-1.314,1.732
		c-0.082,0.023-0.16,0.059-0.24,0.088C135.306,34.887,135.019,34.887,134.731,34.887z M137.185,24.934
		c0.455,0.104,0.924,0.225,1.396,0.318c1.344,0.264,2.689,0.463,4.061,0.18c1.338-0.275,2.197-1.148,2.352-2.5
		c0.211-1.848,0.223-3.699-0.002-5.545c-0.145-1.193-0.789-2.033-1.969-2.4c-1.154-0.359-2.332-0.367-3.49-0.076
		c-1.402,0.354-2.203,1.24-2.256,2.625c-0.094,2.434-0.086,4.871-0.119,7.307C137.155,24.863,137.169,24.883,137.185,24.934z"/>
	<path fill-rule="evenodd" clip-rule="evenodd" fill="#575757" d="M51.106,26.01c0.009-0.004,0.024-0.01,0.026-0.018
		c0.385-1.457,1.521-1.561,2.658-1.26c0.999,0.266,1.992,0.572,3.005,0.762c1.123,0.211,2.263,0.219,3.354-0.217
		c0.543-0.217,0.868-0.609,0.911-1.221c0.041-0.586-0.284-0.928-0.742-1.178c-0.805-0.441-1.697-0.605-2.583-0.773
		c-1.399-0.268-2.778-0.596-4.021-1.332c-1.838-1.092-2.523-2.885-2.297-4.908c0.255-2.283,1.712-3.57,3.798-4.221
		c1.904-0.592,3.855-0.508,5.801-0.242c0.631,0.088,1.262,0.211,1.875,0.379c0.776,0.211,1.249,0.861,1.263,1.629
		c0.015,0.857-0.409,1.578-1.077,1.805c-0.502,0.17-1.003,0.074-1.5-0.035c-1.261-0.275-2.524-0.568-3.825-0.475
		c-0.53,0.039-1.066,0.16-1.572,0.328c-0.51,0.168-0.785,0.584-0.825,1.131c-0.041,0.547,0.195,0.988,0.673,1.189
		c0.695,0.289,1.419,0.535,2.153,0.701c1.333,0.301,2.674,0.559,3.919,1.146c1.308,0.617,2.35,1.496,2.72,2.963
		c0.636,2.521-0.238,4.861-2.74,6.115c-1.295,0.648-2.687,0.814-4.112,0.799c-1.834-0.02-3.607-0.414-5.364-0.895
		c-0.733-0.199-1.281-0.611-1.498-1.379C51.106,26.541,51.106,26.275,51.106,26.01z"/>
	<path fill-rule="evenodd" clip-rule="evenodd" fill="#575757" d="M119.089,12.85c0.715-0.6,1.512-1.08,2.418-1.312
		c2.643-0.676,5.111-0.393,7.18,1.555c1.146,1.08,1.576,2.488,1.576,4.041c-0.002,3.344,0.004,6.688-0.002,10.033
		c-0.004,1.258-1.068,2.041-2.402,1.789c-1.061-0.199-1.57-0.812-1.57-1.908c-0.002-3.268,0.01-6.533-0.01-9.801
		c-0.002-0.441-0.076-0.91-0.236-1.318c-0.275-0.711-0.9-1.066-1.623-1.139c-0.584-0.059-1.199-0.055-1.77,0.068
		c-1.07,0.227-1.596,1.055-1.596,2.312c0.002,3.279-0.01,6.557,0.008,9.834c0.004,0.82-0.242,1.459-1.031,1.783
		c-0.857,0.354-1.684,0.281-2.422-0.316c-0.455-0.367-0.529-0.887-0.529-1.434c0.004-3.256,0.001-6.512,0.003-9.768
		c0-0.49-0.034-0.969-0.267-1.414c-0.334-0.645-0.897-0.994-1.58-1.062c-0.596-0.059-1.222-0.055-1.803,0.066
		c-1.06,0.227-1.584,1.049-1.584,2.287c-0.002,3.279-0.016,6.557,0.008,9.836c0.01,1.119-0.465,1.57-1.1,1.838
		c-0.816,0.344-1.85,0.158-2.437-0.424c-0.338-0.334-0.444-0.75-0.444-1.203c-0.004-3.379-0.021-6.756,0-10.133
		c0.02-3.16,2.131-5.141,4.882-5.678c2.274-0.443,4.386-0.076,6.229,1.416C119.013,12.818,119.044,12.828,119.089,12.85z"/>
	<path fill-rule="evenodd" clip-rule="evenodd" fill="#575757" d="M71.241,11.941c0.625-0.164,1.213-0.352,1.814-0.475
		c2.098-0.432,4.17-0.365,6.157,0.512c2.137,0.945,3.312,2.631,3.606,4.928c0.101,0.785,0.136,1.582,0.14,2.375
		c0.018,2.648,0.007,5.297,0.006,7.945c0,1.062-0.646,1.779-1.71,1.828c-0.387,0.018-0.798-0.027-1.165-0.148
		c-0.74-0.242-1.097-0.801-1.098-1.59c-0.002-2.703,0.007-5.406-0.006-8.109c-0.004-0.65-0.053-1.301-0.12-1.947
		c-0.142-1.361-0.923-2.057-2.255-2.369c-1.325-0.312-2.653-0.164-3.97,0.092c-0.367,0.07-0.722,0.197-1.088,0.268
		c-0.26,0.051-0.318,0.176-0.317,0.428c0.008,3.807,0.006,7.615,0.005,11.422c0,0.963-0.418,1.539-1.297,1.789
		c-0.955,0.273-2.006-0.025-2.416-0.744c-0.16-0.283-0.25-0.645-0.25-0.971c-0.013-6.975-0.011-13.951-0.01-20.926
		c0-0.898,0.471-1.49,1.351-1.707c0.61-0.15,1.208-0.113,1.766,0.188c0.57,0.309,0.861,0.795,0.859,1.457
		c-0.005,1.787-0.001,3.576-0.001,5.361C71.241,11.67,71.241,11.789,71.241,11.941z"/>
	<path fill-rule="evenodd" clip-rule="evenodd" fill="#575757" d="M89.883,22.764c-0.001,1.48,0.008,2.957-0.003,4.438
		c-0.008,0.973-0.602,1.607-1.618,1.768c-1.017,0.158-2.003-0.346-2.265-1.18c-0.068-0.217-0.086-0.457-0.085-0.684
		c0.006-2.871,0.005-5.742,0.037-8.611c0.015-1.297,0.192-2.572,0.81-3.746c0.938-1.781,2.463-2.787,4.374-3.232
		c2.059-0.48,4.11-0.426,6.134,0.238c1.021,0.336,1.492,1.154,1.205,2.121c-0.346,1.16-1.154,1.631-2.254,1.365
		c-0.832-0.201-1.672-0.402-2.52-0.49c-0.824-0.086-1.651,0.025-2.397,0.459c-0.653,0.381-1.007,0.969-1.182,1.68
		c-0.273,1.115-0.22,2.258-0.234,3.393C89.874,21.107,89.883,21.936,89.883,22.764z"/>
	<path fill-rule="evenodd" clip-rule="evenodd" fill="#575757" d="M104.829,20.139c0,2.295-0.018,4.59,0.008,6.885
		c0.014,1.135-0.527,1.58-1.168,1.824c-0.858,0.33-1.938,0.08-2.464-0.551c-0.312-0.373-0.351-0.816-0.351-1.275
		c0.002-4.139,0.001-8.277,0.001-12.414c0-0.496-0.001-0.992,0-1.49c0.004-0.885,0.429-1.453,1.274-1.705
		c0.465-0.139,0.934-0.143,1.401-0.01c0.858,0.24,1.296,0.814,1.298,1.717C104.832,15.459,104.829,17.801,104.829,20.139z"/>
</g>
</svg>
