<?xml version="1.0" encoding="utf-8"?>
<!-- Generator: Adobe Illustrator 16.0.4, SVG Export Plug-In . SVG Version: 6.00 Build 0)  -->
<!DOCTYPE svg PUBLIC "-//W3C//DTD SVG 1.1//EN" "http://www.w3.org/Graphics/SVG/1.1/DTD/svg11.dtd">
<svg version="1.1" id="Layer_1" xmlns="http://www.w3.org/2000/svg" xmlns:xlink="http://www.w3.org/1999/xlink" x="0px" y="0px"
	 width="140px" height="150px" viewBox="0 0 140 150" enable-background="new 0 0 140 150" xml:space="preserve">
<rect x="-650" y="-247" fill="none" width="1440" height="1024"/>
<path fill="#E1634E" d="M48.582,76.799L67.17,44.633H30c0.266,6.562,2.152,12.984,5.474,18.624
	C38.698,68.729,43.218,73.396,48.582,76.799z"/>
<path fill="#E1634E" d="M70.001,46.266L51.413,78.434C57.115,81.424,63.523,83,70.001,83c6.478,0,12.886-1.576,18.588-4.566
	L70.001,46.266z"/>
<path fill="#E1634E" d="M35.472,22.741c-3.32,5.642-5.206,12.064-5.472,18.626h37.17L48.582,9.199
	C43.216,12.601,38.696,17.269,35.472,22.741z"/>
<path fill="#E1634E" d="M69.983,3h0.043C70.018,3,70.008,3,70,3C69.994,3,69.989,3,69.983,3z"/>
<polygon fill="#E1634E" points="71.227,3 103.9,3 103.9,3 "/>
<path fill="#E1634E" d="M51.412,7.565l19.082,33.022C73.618,40.035,101.744,34.169,103.9,3H71.227v0.008l-0.825-0.002
	c-0.062,0-0.124-0.002-0.184-0.002C70.154,3.002,70.09,3,70.027,3h-0.043C63.511,3.002,57.108,4.578,51.412,7.565z M89.609,6.266
	c1.354,0,2.451,1.096,2.451,2.45c0,1.35-1.098,2.448-2.451,2.448c-1.354,0-2.452-1.098-2.452-2.448
	C87.157,7.362,88.256,6.266,89.609,6.266z"/>
<rect x="-650" y="-247" fill="none" width="1440" height="1024"/>
<path fill="#E1634E" d="M94.777,41.367h15.222c-0.08-4.134-1.748-7.876-4.416-10.656C102.281,35.401,98.396,38.861,94.777,41.367z"
	/>
<path fill="#E1634E" d="M104.527,63.259c3.32-5.642,5.207-12.064,5.473-18.626H72.83l18.588,32.168
	C96.784,73.398,101.305,68.731,104.527,63.259z"/>
<g>
	<path fill="#3C616E" d="M10.359,105.66c2.79,0,4.185,1.439,4.5,1.935v-7.244c0-1.08,0.585-1.71,1.665-1.71h1.44
		c1.08,0,1.71,0.63,1.71,1.71v29.608c0,1.08-0.63,1.665-1.71,1.665h-1.395c-1.08,0-1.71-0.45-1.71-1.35v-0.766
		c-0.36,0.811-1.89,2.295-4.77,2.295c-4.095,0-6.21-2.609-6.21-6.614V112.5C3.879,108.09,6.534,105.66,10.359,105.66z M11.664,109.8
		c-1.89,0-3.015,0.99-3.015,2.97v11.88c0,1.935,1.125,2.925,3.015,2.925c1.755,0,3.195-0.945,3.195-2.88V112.68
		C14.859,110.79,13.419,109.8,11.664,109.8z"/>
	<path fill="#3C616E" d="M28.179,119.97v4.77c0,1.935,1.08,3.06,3.285,3.06c2.205,0,3.285-1.08,3.285-2.925v-0.404
		c0-1.035,0.585-1.575,1.665-1.575h1.35c1.08,0,1.71,0.495,1.71,1.529v0.315c0,4.59-3.015,7.335-8.01,7.335
		c-5.04,0-7.964-2.745-7.964-7.425v-12.104c0-4.635,2.925-7.425,7.964-7.425c5.04,0,8.01,2.79,8.01,7.425v5.715
		c0,0.854-0.405,1.395-1.08,1.575c-0.225,0.09-0.495,0.135-0.765,0.135H28.179z M28.179,112.455v3.689h6.615v-3.689
		c0-1.936-1.125-3.061-3.33-3.061C29.259,109.395,28.179,110.52,28.179,112.455z"/>
	<path fill="#3C616E" d="M53.874,124.109c0-1.08,0.63-1.665,1.71-1.665h1.395c1.08,0,1.665,0.585,1.665,1.665v0.54
		c0,4.68-2.88,7.425-7.919,7.425c-4.995,0-7.875-2.745-7.875-7.425v-12.104c0-4.635,2.88-7.425,7.875-7.425
		c5.04,0,7.919,2.79,7.919,7.425v0.63c0,1.08-0.585,1.665-1.665,1.665h-1.395c-1.08,0-1.71-0.585-1.71-1.665v-0.63
		c0-1.935-0.99-3.105-3.15-3.105c-2.115,0-3.15,1.171-3.15,3.105v12.104c0,1.979,1.035,3.104,3.15,3.104
		c2.16,0,3.15-1.125,3.15-3.104V124.109z"/>
	<path fill="#3C616E" d="M77.093,112.319v17.64c0,1.08-0.585,1.665-1.665,1.665h-1.305c-1.08,0-1.71-0.585-1.71-1.575v-0.944
		c-0.36,0.989-1.575,2.789-4.86,2.789c-4.23,0-6.525-2.249-6.525-6.254v-1.351c0-3.284,1.8-5.13,5.265-6.345l6.03-2.114v-3.556
		c0-1.935-0.9-2.88-3.15-2.88c-2.205,0-3.149,0.945-3.149,2.835v0.226c0,0.989-0.63,1.529-1.71,1.529h-1.395
		c-1.08,0-1.665-0.54-1.665-1.529v-0.181c0-4.635,2.79-7.154,7.919-7.154C74.303,105.12,77.093,107.64,77.093,112.319z
		 M72.323,124.919v-4.949l-3.87,1.305c-1.98,0.63-2.655,1.44-2.655,3.104v0.855c0,1.8,0.945,2.745,3.06,2.745
		C71.333,127.979,72.323,126.674,72.323,124.919z"/>
	<path fill="#3C616E" d="M90.367,131.669c-2.699,0-4.004-1.125-4.409-1.62v7.38c0,1.08-0.585,1.665-1.665,1.665h-1.44
		c-1.079,0-1.664-0.585-1.664-1.665V107.28c0-1.08,0.585-1.71,1.664-1.71h1.44c1.035,0,1.665,0.495,1.665,1.35v0.811
		c0.45-0.855,2.024-2.341,4.77-2.341c4.005,0,6.255,2.521,6.255,6.525v12.914C96.982,129.239,94.237,131.669,90.367,131.669z
		 M89.152,127.529c1.891,0,3.016-0.99,3.016-2.97v-11.97c0-1.979-1.125-2.97-3.016-2.97c-1.755,0-3.194,0.99-3.194,2.88v12.149
		C85.958,126.539,87.397,127.529,89.152,127.529z"/>
	<path fill="#3C616E" d="M108.323,132.074c-5.04,0-7.965-2.745-7.965-7.425v-12.104c0-4.635,2.925-7.425,7.965-7.425
		c4.994,0,7.964,2.79,7.964,7.425v12.104C116.287,129.329,113.317,132.074,108.323,132.074z M108.323,109.439
		c-2.16,0-3.24,1.171-3.24,3.105v12.104c0,1.979,1.08,3.104,3.24,3.104c2.114,0,3.194-1.125,3.194-3.104v-12.104
		C111.518,110.61,110.438,109.439,108.323,109.439z"/>
	<path fill="#3C616E" d="M126.143,105.66c2.79,0,4.185,1.439,4.5,1.935v-7.244c0-1.08,0.585-1.71,1.665-1.71h1.439
		c1.08,0,1.71,0.63,1.71,1.71v29.608c0,1.08-0.63,1.665-1.71,1.665h-1.395c-1.08,0-1.71-0.45-1.71-1.35v-0.766
		c-0.36,0.811-1.89,2.295-4.77,2.295c-4.096,0-6.21-2.609-6.21-6.614V112.5C119.663,108.09,122.317,105.66,126.143,105.66z
		 M127.447,109.8c-1.89,0-3.015,0.99-3.015,2.97v11.88c0,1.935,1.125,2.925,3.015,2.925c1.755,0,3.195-0.945,3.195-2.88V112.68
		C130.643,110.79,129.202,109.8,127.447,109.8z"/>
</g>
</svg>
